<?xml version="1.0" encoding="UTF-8"?>
<svg version="1.1" xmlns="http://www.w3.org/2000/svg" width="246" height="173">
<path d="M0 0 C0 45.21 0 90.42 0 137 C2.31 137 4.62 137 7 137 C6.99777939 135.92354721 6.99555878 134.84709442 6.99327087 133.73802185 C6.9728121 123.4880356 6.95792004 113.23805361 6.94818783 102.98805141 C6.94301589 97.72111076 6.93602454 92.45418687 6.92456055 87.18725586 C6.91352577 82.08435469 6.9076806 76.98146941 6.90512276 71.87855721 C6.90330493 69.95217705 6.89975768 68.02579756 6.89426994 66.09942436 C6.85589116 52.04082321 7.28139334 38.04023199 8 24 C9.98 24.495 9.98 24.495 12 25 C12 61.96 12 98.92 12 137 C12.99 137 13.98 137 15 137 C15 100.37 15 63.74 15 26 C16.98 26.495 16.98 26.495 19 27 C19 63.3 19 99.6 19 137 C20.32 137 21.64 137 23 137 C23 101.36 23 65.72 23 29 C24.32 29.33 25.64 29.66 27 30 C27 65.31 27 100.62 27 137 C29.31 137 31.62 137 34 137 C33.97335266 135.95509903 33.94670532 134.91019806 33.91925049 133.83363342 C33.67546574 123.96247448 33.49586385 114.09192966 33.37825394 104.21843815 C33.31575148 99.14263559 33.23106469 94.0692718 33.09472656 88.99487305 C32.9638502 84.09279589 32.89249451 79.19305567 32.86147308 74.28936577 C32.83938371 72.42361085 32.79624104 70.55797705 32.73123932 68.69322395 C32.24363295 54.11853178 32.24363295 54.11853178 36.54040527 48.9357605 C39.59685924 46.61010138 42.60861121 44.79190227 46 43 C47.61808563 41.90069908 47.61808563 41.90069908 49.26885986 40.77919006 C52 39 52 39 54 39 C54 72.33 54 105.66 54 140 C55.65 140 57.3 140 59 140 C59.33 112.61 59.66 85.22 60 57 C60.99 57 61.98 57 63 57 C64.27837247 65.81590428 64.12660995 74.6194699 64.09765625 83.50390625 C64.09578827 85.19498147 64.09436616 86.88605723 64.09336853 88.57713318 C64.08957328 93.00100227 64.07976896 97.42483787 64.06866455 101.84869385 C64.05838569 106.373734 64.05385711 110.89877963 64.04882812 115.42382812 C64.03814366 124.28256669 64.0211037 133.14128055 64 142 C65.32 142 66.64 142 68 142 C68 114.94 68 87.88 68 60 C68.99 60 69.98 60 71 60 C72.21059426 63.63178277 72.08802061 66.90900275 72.02172852 70.68432617 C72.01212097 71.4650499 72.00251343 72.24577362 71.99261475 73.05015564 C71.95962898 75.6311852 71.91929503 78.21204529 71.87890625 80.79296875 C71.85460472 82.58229474 71.83076118 84.371627 71.80735779 86.16096497 C71.74452013 90.87103419 71.67545254 95.58099237 71.60510254 100.29095459 C71.53441625 105.09691306 71.46960104 109.90295029 71.40429688 114.70898438 C71.27528863 124.13940946 71.13970103 133.56972768 71 143 C72.65 143.33 74.3 143.66 76 144 C76 116.94 76 89.88 76 62 C76.99 62.33 77.98 62.66 79 63 C80.78287376 122.42754473 80.78287376 122.42754473 79 145 C79.91136719 145.1959375 80.82273438 145.391875 81.76171875 145.59375 C100.24950497 149.77741899 117.28411776 157.18283135 134 166 C134 166.66 134 167.32 134 168 C133.36545898 167.82331787 132.73091797 167.64663574 132.07714844 167.46459961 C111.97834286 161.91991474 91.6732059 156.84240132 71 154 C69.39995117 153.77570313 69.39995117 153.77570313 67.76757812 153.546875 C11.36097246 146.04754405 -45.77200752 150.77050506 -100.32885742 166.32324219 C-103.20269552 167.05135472 -106.07085679 167.5498997 -109 168 C-105.26003851 163.34915964 -100.13237313 161.47763842 -94.8125 159.125 C-93.35312012 158.47072021 -93.35312012 158.47072021 -91.86425781 157.80322266 C-69.67362348 148 -69.67362348 148 -64 148 C-64.02220612 147.02804688 -64.04441223 146.05609375 -64.06729126 145.0546875 C-64.27040487 135.8747307 -64.42009655 126.69523214 -64.51812172 117.51353455 C-64.57021525 112.79338623 -64.64080948 108.07505783 -64.75439453 103.35595703 C-64.8634185 98.79758979 -64.92291511 94.24096725 -64.94877243 89.68139648 C-64.96718639 87.94609104 -65.00314936 86.21087644 -65.05730057 84.47631836 C-65.46361448 70.91643405 -65.46361448 70.91643405 -61.88299561 66.22802734 C-59.34455566 64.16548234 -56.85948255 62.57703494 -54 61 C-52.3238134 59.84705274 -50.65556477 58.68236805 -49 57.5 C-45.27659574 55 -45.27659574 55 -43 55 C-43 83.71 -43 112.42 -43 142 C-41.35 142 -39.7 142 -38 142 C-38 119.56 -38 97.12 -38 74 C-36.02 74.495 -36.02 74.495 -34 75 C-34 96.45 -34 117.9 -34 140 C-32.68 140 -31.36 140 -30 140 C-30 119.21 -30 98.42 -30 77 C-28.02 77.495 -28.02 77.495 -26 78 C-26 98.13 -26 118.26 -26 139 C-24.68 139 -23.36 139 -22 139 C-22 119.53 -22 100.06 -22 80 C-20.02 80.495 -20.02 80.495 -18 81 C-18 99.81 -18 118.62 -18 138 C-17.01 138 -16.02 138 -15 138 C-15 114.57 -15 91.14 -15 67 C-17.97 65.35 -20.94 63.7 -24 62 C-27.29926077 21.53329773 -27.29926077 21.53329773 -22.08544922 13.42871094 C-17.62019948 8.49838702 -12.31634886 5.36568109 -6.17651367 2.88989258 C-4.10158187 2.04153291 -2.17236995 0 0 0 Z " fill="#FCBF5D" transform="translate(111,2)"/>
<path d="M0 0 C0.99 0 1.98 0 3 0 C2.89280127 14.42084014 2.77998248 28.84162688 2.66066074 43.26237202 C2.6054238 49.95801971 2.55188167 56.6536703 2.50268555 63.34936523 C2.45505347 69.80733809 2.40271097 76.26525696 2.34705925 82.72316551 C2.32663047 85.19078418 2.30791827 87.65841767 2.29092598 90.12606239 C2.26689367 93.57408646 2.2368373 97.02200807 2.20532227 100.4699707 C2.1995668 101.49711685 2.19381134 102.524263 2.18788147 103.58253479 C2.17319824 104.98967743 2.17319824 104.98967743 2.15821838 106.42524719 C2.14853956 107.64892738 2.14853956 107.64892738 2.1386652 108.89732838 C2 111 2 111 1 114 C-1.64 114 -4.28 114 -7 114 C-7 113.67 -7 113.34 -7 113 C-5.02 113 -3.04 113 -1 113 C-1.00222061 111.92354721 -1.00444122 110.84709442 -1.00672913 109.73802185 C-1.0271879 99.4880356 -1.04207996 89.23805361 -1.05181217 78.98805141 C-1.05698411 73.72111076 -1.06397546 68.45418687 -1.07543945 63.18725586 C-1.08647423 58.08435469 -1.0923194 52.98146941 -1.09487724 47.87855721 C-1.09669507 45.95217705 -1.10024232 44.02579756 -1.10573006 42.09942436 C-1.14410884 28.04082321 -0.71860666 14.04023199 0 0 Z " fill="#FBCF42" transform="translate(119,26)"/>
<path d="M0 0 C0.99 0.33 1.98 0.66 3 1 C5.09308497 70.76764328 5.09308497 70.76764328 3 82 C0 84 0 84 -4 84 C-4.33 83.01 -4.66 82.02 -5 81 C-3.35 81.33 -1.7 81.66 0 82 C0 54.94 0 27.88 0 0 Z " fill="#FAC97D" transform="translate(187,64)"/>
<path d="M0 0 C0.99 0 1.98 0 3 0 C4.07501939 7.85340629 4.14640195 15.61092439 4.1328125 23.52734375 C4.13348788 24.9254203 4.13445985 26.32349673 4.13571167 27.72157288 C4.13717811 30.63885628 4.13506852 33.55610888 4.13037109 36.47338867 C4.12467979 40.18605223 4.12795576 43.89864338 4.13394356 47.61130428 C4.1375823 50.49488353 4.13639537 53.37844604 4.13381577 56.26202583 C4.13315536 57.62976655 4.1339434 58.99750887 4.13629532 60.36524773 C4.14650987 67.97381573 3.96693433 75.44764331 3 83 C2.01 83 1.02 83 0 83 C0 55.61 0 28.22 0 0 Z " fill="#F0BD6D" transform="translate(171,59)"/>
<path d="M0 0 C1.32 0.33 2.64 0.66 4 1 C4 22.12 4 43.24 4 65 C3.01 65 2.02 65 1 65 C0.505 65.99 0.505 65.99 0 67 C0 44.89 0 22.78 0 0 Z " fill="#F1C073" transform="translate(73,76)"/>
<path d="M0 0 C1.32 0.33 2.64 0.66 4 1 C4.06943237 9.0492212 4.12277646 17.09831782 4.15543652 25.14776421 C4.17110972 28.88523796 4.19237761 32.62250723 4.22631836 36.35986328 C4.25885367 39.9649164 4.27684054 43.56977252 4.28463173 47.17496109 C4.29018581 48.55213651 4.30103135 49.92930085 4.31719017 51.30639267 C4.33888435 53.23133631 4.34022471 55.15647712 4.34057617 57.08154297 C4.34723801 58.17852509 4.35389984 59.2755072 4.36076355 60.4057312 C4.18218559 61.68989426 4.18218559 61.68989426 4 63 C1 65 1 65 -1.1875 64.625 C-1.785625 64.41875 -2.38375 64.2125 -3 64 C-1.515 63.505 -1.515 63.505 0 63 C0 42.21 0 21.42 0 0 Z " fill="#F1C477" transform="translate(81,79)"/>
<path d="M0 0 C0.99 0 1.98 0 3 0 C4.1996215 3.5988645 4.09618417 6.83560363 4.03759766 10.57666016 C4.02959641 11.34602402 4.02159515 12.11538788 4.01335144 12.9080658 C3.98546351 15.4518223 3.94999329 17.99540781 3.9140625 20.5390625 C3.8922973 22.30357488 3.87084759 24.06809118 3.84970093 25.83261108 C3.80420402 29.52973579 3.75497659 33.22678724 3.703125 36.92382812 C3.63679978 41.67326386 3.57957245 46.42275764 3.52509499 51.1723423 C3.48235081 54.8147985 3.43490232 58.45718154 3.38599777 62.09955978 C3.36303277 63.85151723 3.34153161 65.60349448 3.32149124 67.35548782 C3.29283287 69.79779503 3.25788178 72.23993099 3.22119141 74.68212891 C3.2138649 75.41252884 3.20653839 76.14292877 3.19898987 76.89546204 C3.11427528 81.88572472 3.11427528 81.88572472 2 83 C0.33382885 83.04063832 -1.33388095 83.042721 -3 83 C-1.515 82.505 -1.515 82.505 0 82 C0 54.94 0 27.88 0 0 Z " fill="#F5C06D" transform="translate(179,62)"/>
<path d="M0 0 C0 33.33 0 66.66 0 101 C0.99 101 1.98 101 3 101 C3 101.66 3 102.32 3 103 C1.0625 102.625 1.0625 102.625 -1 102 C-2.69091569 98.61816862 -2.18101108 94.77415533 -2.20532227 91.05224609 C-2.21522186 90.12536484 -2.22512146 89.19848358 -2.23532104 88.24351501 C-2.2669882 85.17018211 -2.29171408 82.09683372 -2.31640625 79.0234375 C-2.33697127 76.89636832 -2.35796762 74.76930326 -2.37937927 72.64224243 C-2.43464658 67.03628884 -2.4840353 61.43029808 -2.53222656 55.82427979 C-2.5824076 50.10677777 -2.63811138 44.3893299 -2.69335938 38.671875 C-2.80099793 27.4479629 -2.90243022 16.22400383 -3 5 C-7.455 6.485 -7.455 6.485 -12 8 C-4.57142857 0 -4.57142857 0 0 0 Z " fill="#F0C176" transform="translate(165,41)"/>
<path d="M0 0 C0 0.66 0 1.32 0 2 C-1.22092094 2.58662666 -1.22092094 2.58662666 -2.46650696 3.18510437 C-5.33557836 4.79859153 -5.33557836 4.79859153 -5.58781433 8.12971497 C-5.57067886 9.41955795 -5.5535434 10.70940094 -5.53588867 12.03833008 C-5.53340622 12.75089462 -5.53092377 13.46345917 -5.52836609 14.19761658 C-5.51467573 16.55574928 -5.46602027 18.91186997 -5.41796875 21.26953125 C-5.40355878 22.9099482 -5.39165659 24.55038894 -5.38215637 26.19084167 C-5.35170976 30.51427501 -5.29303577 34.83683546 -5.22674561 39.15985107 C-5.12453588 46.0683068 -5.06067718 52.97711964 -5.00493813 59.8860836 C-4.98083037 62.2958842 -4.94216799 64.7051266 -4.9016571 67.11470032 C-4.884794 68.60095774 -4.86831956 70.08721963 -4.85229492 71.57348633 C-4.83277267 72.86571609 -4.81325043 74.15794586 -4.7931366 75.48933411 C-5.00283117 79.04804767 -5.58363573 81.73550792 -7 85 C-9.375 86.4375 -9.375 86.4375 -12 87 C-13.32 86.67 -14.64 86.34 -16 86 C-12.04 85.01 -12.04 85.01 -8 84 C-8.0199855 82.53207756 -8.0199855 82.53207756 -8.04037476 81.03450012 C-8.16203751 71.80918527 -8.25196323 62.58403328 -8.31087303 53.35809803 C-8.34217788 48.61493797 -8.38463465 43.87242582 -8.45263672 39.12963867 C-8.51786039 34.55194935 -8.55371241 29.9748829 -8.56926346 25.39676476 C-8.58034451 23.65078614 -8.60198408 21.90484139 -8.63438034 20.15912819 C-8.67798683 17.7118648 -8.68393282 15.26716986 -8.68115234 12.81958008 C-8.702724 12.09884811 -8.72429565 11.37811615 -8.746521 10.63554382 C-8.71181413 7.80954035 -8.51913097 5.63095758 -6.68877029 3.40631676 C-2.7665109 0 -2.7665109 0 0 0 Z " fill="#F2C277" transform="translate(55,66)"/>
<path d="M0 0 C1.32 0.33 2.64 0.66 4 1 C4 19.81 4 38.62 4 58 C3.67 58 3.34 58 3 58 C2.67 50.41 2.34 42.82 2 35 C1.67 42.59 1.34 50.18 1 58 C0.67 58 0.34 58 0 58 C0 38.86 0 19.72 0 0 Z " fill="#EFC47C" transform="translate(89,82)"/>
<path d="M0 0 C0.99 0.66 1.98 1.32 3 2 C2.34 2 1.68 2 1 2 C1.33 26.09 1.66 50.18 2 75 C2.33 75 2.66 75 3 75 C3.1875 78.375 3.1875 78.375 3 82 C0 84 0 84 -4 84 C-4.33 83.01 -4.66 82.02 -5 81 C-3.35 81.33 -1.7 81.66 0 82 C0 54.94 0 27.88 0 0 Z " fill="#F5C46F" transform="translate(187,64)"/>
<path d="M0 0 C0.66 0.33 1.32 0.66 2 1 C0.35 1.66 -1.3 2.32 -3 3 C-2.04134491 5.33075929 -2.04134491 5.33075929 1 7 C-2.37341094 7.98469803 -5.74898782 8.96176103 -9.125 9.9375 C-10.07632812 10.21529297 -11.02765625 10.49308594 -12.0078125 10.77929688 C-16.6543284 12.11839694 -21.19382217 13.36079453 -26 14 C-23.18907248 10.9254714 -20.65080442 9.10963413 -16.8671875 7.38671875 C-15.89652344 6.94392578 -14.92585937 6.50113281 -13.92578125 6.04492188 C-12.41564453 5.37299805 -12.41564453 5.37299805 -10.875 4.6875 C-9.86050781 4.22021484 -8.84601562 3.75292969 -7.80078125 3.27148438 C-2.19703493 0.74569459 -2.19703493 0.74569459 0 0 Z " fill="#F4BE66" transform="translate(28,156)"/>
<path d="M0 0 C0 12.21 0 24.42 0 37 C-2 35 -2 35 -2.22705078 31.92724609 C-2.21134033 29.99486084 -2.21134033 29.99486084 -2.1953125 28.0234375 C-2.1924826 27.33819 -2.18965271 26.6529425 -2.18673706 25.94692993 C-2.17553281 23.75610973 -2.15042859 21.56569684 -2.125 19.375 C-2.11497048 17.8906309 -2.10584458 16.4062554 -2.09765625 14.921875 C-2.07559294 11.28111739 -2.04106176 7.64059844 -2 4 C-5.16115776 5.36983503 -5.9927092 5.9890638 -8 9 C-10.625 9.6875 -10.625 9.6875 -13 10 C-3.57142857 0 -3.57142857 0 0 0 Z " fill="#F0C275" transform="translate(111,2)"/>
<path d="M0 0 C3.47598164 0.57977557 6.29104698 1.46521105 9.42578125 3.06640625 C10.22177734 3.46923828 11.01777344 3.87207031 11.83789062 4.28710938 C12.65451172 4.70798828 13.47113281 5.12886719 14.3125 5.5625 C15.14845703 5.98724609 15.98441406 6.41199219 16.84570312 6.84960938 C18.89996426 7.8943479 20.95120292 8.94459762 23 10 C23 10.66 23 11.32 23 12 C22.37996094 11.82984375 21.75992188 11.6596875 21.12109375 11.484375 C13.09028779 9.28671631 5.04651696 7.13922246 -3 5 C-3 4.67 -3 4.34 -3 4 C-1.02 3.67 0.96 3.34 3 3 C2.01 2.01 1.02 1.02 0 0 Z " fill="#F4BD6A" transform="translate(222,158)"/>
<path d="M0 0 C1.96244652 3.92489304 2.28432814 5.62138586 2.4140625 9.859375 C2.45273438 10.97441406 2.49140625 12.08945313 2.53125 13.23828125 C2.5621875 14.39714844 2.593125 15.55601562 2.625 16.75 C2.66367188 17.92433594 2.70234375 19.09867188 2.7421875 20.30859375 C2.8363982 23.20557268 2.92201602 26.10254626 3 29 C1.02 29.33 -0.96 29.66 -3 30 C-3.33 29.34 -3.66 28.68 -4 28 C-3.01 27.67 -2.02 27.34 -1 27 C-0.67 18.09 -0.34 9.18 0 0 Z " fill="#F5BE62" transform="translate(90,113)"/>
<path d="M0 0 C0.886875 0.391875 1.77375 0.78375 2.6875 1.1875 C2.6875 1.8475 2.6875 2.5075 2.6875 3.1875 C-0.6125 3.8475 -3.9125 4.5075 -7.3125 5.1875 C-7.6425 4.1975 -7.9725 3.2075 -8.3125 2.1875 C-5.09279771 -0.27462528 -4.04623082 -0.99247171 0 0 Z " fill="#FCBC56" transform="translate(33.3125,156.8125)"/>
<path d="M0 0 C0.57234375 0.21527344 1.1446875 0.43054688 1.734375 0.65234375 C1.734375 1.31234375 1.734375 1.97234375 1.734375 2.65234375 C0.49016853 3.18686935 -0.76133436 3.70442986 -2.015625 4.21484375 C-2.71171875 4.50488281 -3.4078125 4.79492188 -4.125 5.09375 C-6.56575284 5.73066178 -7.9059905 5.45483206 -10.265625 4.65234375 C-9.02618224 3.78292881 -7.77355441 2.93228918 -6.515625 2.08984375 C-5.81953125 1.61417969 -5.1234375 1.13851562 -4.40625 0.6484375 C-2.265625 -0.34765625 -2.265625 -0.34765625 0 0 Z " fill="#F0CE7F" transform="translate(12.265625,164.34765625)"/>
<path d="M0 0 C-0.125 1.875 -0.125 1.875 -1 4 C-3.8125 5.1875 -3.8125 5.1875 -7 6 C-8.175625 6.309375 -8.175625 6.309375 -9.375 6.625 C-9.91125 6.74875 -10.4475 6.8725 -11 7 C-4.48275862 0 -4.48275862 0 0 0 Z " fill="#F3C171" transform="translate(164,42)"/>
<path d="M0 0 C5.94 1.485 5.94 1.485 12 3 C12 3.33 12 3.66 12 4 C7.71 3.67 3.42 3.34 -1 3 C-0.67 2.01 -0.34 1.02 0 0 Z " fill="#F0BF6E" transform="translate(191,147)"/>
<path d="M0 0 C0.33 0.66 0.66 1.32 1 2 C0.67 2.99 0.34 3.98 0 5 C-0.804375 5.12375 -1.60875 5.2475 -2.4375 5.375 C-3.7059375 5.684375 -3.7059375 5.684375 -5 6 C-5.33 6.66 -5.66 7.32 -6 8 C-5.65120368 4.74456771 -4.97866739 3.98126893 -2.4375 1.75 C-1.633125 1.1725 -0.82875 0.595 0 0 Z " fill="#F2BE6D" transform="translate(95,13)"/>
<path d="M0 0 C3.465 1.485 3.465 1.485 7 3 C7 3.66 7 4.32 7 5 C4.36 4.34 1.72 3.68 -1 3 C-0.67 2.01 -0.34 1.02 0 0 Z " fill="#EDC77C" transform="translate(238,165)"/>
<path d="M0 0 C0.33 0.66 0.66 1.32 1 2 C1.66 2 2.32 2 3 2 C3 2.66 3 3.32 3 4 C3.66 4.33 4.32 4.66 5 5 C2.36 4.67 -0.28 4.34 -3 4 C-2.34 3.67 -1.68 3.34 -1 3 C-0.67 2.01 -0.34 1.02 0 0 Z " fill="#F5BF6A" transform="translate(193,153)"/>
</svg>
